# Blender v2.90.0 OBJ File: 'MedicTent.blend'
# www.blender.org
mtllib MedicTent.mtl
o MedicTent_Cylinder.002
v -0.286508 1.780802 3.883047
v -0.286508 -2.240450 3.883047
v -0.165649 1.780802 3.970856
v -0.165649 -2.240450 3.970856
v -0.211813 1.780802 4.112935
v -0.211813 -2.240450 4.112935
v -0.361203 1.780802 4.112935
v -0.361203 -2.240450 4.112935
v -0.407367 1.780802 3.970856
v -0.407367 -2.240450 3.970856
v -0.286508 1.780802 -4.042541
v -0.286508 -2.240450 -4.042541
v -0.165649 1.780802 -4.130350
v -0.165649 -2.240450 -4.130351
v -0.211813 1.780802 -4.272429
v -0.211813 -2.240450 -4.272430
v -0.361203 1.780802 -4.272429
v -0.361203 -2.240450 -4.272430
v -0.407367 1.780802 -4.130350
v -0.407367 -2.240450 -4.130351
v 2.392266 -2.209285 -4.331002
v 2.392266 -2.209285 4.171509
v -2.965313 -2.209285 -4.331002
v -2.965313 -2.209285 4.171509
v -0.286524 1.242818 -4.331002
v -0.286524 1.242818 4.171509
v 1.457671 -0.415473 -4.331002
v 1.457671 -0.415473 4.171509
v 1.483735 -2.209285 -4.331002
v 1.483735 -2.209285 4.171509
v -2.056783 -2.209285 -4.331002
v -2.056783 -2.209285 4.171509
v -2.030718 -0.415472 -4.331002
v -2.030718 -0.415473 4.171509
v 2.392266 -2.209285 3.746384
v -2.965313 -2.209285 3.746384
v -0.286524 1.242818 3.746384
v 1.457671 -0.415473 3.746384
v 1.483735 -2.209285 3.746384
v -2.056783 -2.209285 3.746384
v -2.030718 -0.415473 3.746384
v 2.392266 -2.209285 -3.897048
v -2.965313 -2.209285 -3.897048
v 1.457671 -0.415473 -3.897048
v 1.483735 -2.209285 -3.897048
v -2.056783 -2.209285 -3.897048
v -2.030718 -0.415472 -3.897048
v -0.286524 1.242818 -3.897048
v -0.286523 1.462810 -3.897048
v -0.286523 1.462809 3.746384
v -2.740886 -0.415473 3.746384
v -2.777564 -2.209285 3.746384
v 2.204515 -2.209285 3.746384
v 2.167838 -0.415473 3.746384
v 2.167838 -0.415473 -3.897048
v 2.204515 -2.209285 -3.897048
v -2.777564 -2.209285 -3.897048
v -2.740886 -0.415472 -3.897048
v 2.216951 0.036929 -4.331002
v 2.276055 -0.081815 -4.331002
v 2.207467 -0.041904 -4.331002
v 2.276055 -0.081815 4.171509
v 2.216951 0.036929 4.171509
v 2.207467 -0.041904 4.171509
v -2.849102 -0.081814 -4.331002
v -2.789998 0.036929 -4.331002
v -2.780514 -0.041903 -4.331002
v -2.789998 0.036929 4.171509
v -2.849102 -0.081815 4.171509
v -2.780514 -0.041904 4.171509
v 2.276055 -0.081815 3.746384
v 2.216951 0.036929 3.746384
v -2.789998 0.036929 3.746384
v -2.849102 -0.081815 3.746384
v 2.216951 0.036929 -3.897048
v 2.276055 -0.081815 -3.897048
v -2.849102 -0.081814 -3.897048
v -2.789998 0.036929 -3.897048
v -0.407303 2.050687 -4.331002
v -0.165744 2.050687 -4.331002
v -0.286524 1.994627 -4.331002
v -0.165744 2.050687 4.171509
v -0.407303 2.050687 4.171509
v -0.286524 1.994627 4.171509
v -0.165744 2.050687 3.746384
v -0.407303 2.050687 3.746384
v -0.165744 2.050687 -3.897048
v -0.407303 2.050687 -3.897048
v 1.798026 0.346420 1.356245
v 0.158620 1.636921 1.356245
v 1.798026 0.346420 -0.784684
v 0.158620 1.636921 -0.784684
v 1.892597 0.466560 1.356245
v 0.253192 1.757061 1.356245
v 1.892597 0.466560 -0.784684
v 0.253192 1.757061 -0.784684
v 1.202307 0.923847 -0.714220
v 1.202307 0.923847 1.285780
v 0.859797 1.193463 -0.714220
v 0.859797 1.193463 1.285780
v 1.281408 1.024335 -0.714220
v 1.281408 1.024335 1.285780
v 0.938899 1.293951 -0.714220
v 0.938899 1.293951 1.285780
v 1.801719 0.420951 0.503728
v 0.230199 1.658014 0.503728
v 1.801719 0.420951 0.067832
v 0.230199 1.658014 0.067832
v 1.880821 0.521439 0.503728
v 0.309301 1.758502 0.503728
v 1.880821 0.521439 0.067832
v 0.309301 1.758502 0.067832
vt 1.000000 1.000000
vt 0.800000 0.500000
vt 1.000000 0.500000
vt 0.800000 1.000000
vt 0.600000 0.500000
vt 0.600000 1.000000
vt 0.400000 0.500000
vt 0.250000 0.490000
vt 0.108932 0.055836
vt 0.391068 0.055836
vt 0.400000 1.000000
vt 0.200000 0.500000
vt 0.200000 1.000000
vt 0.000000 0.500000
vt 0.978254 0.324164
vt 0.891068 0.055836
vt 0.608932 0.055836
vt 0.800000 0.500000
vt 1.000000 1.000000
vt 1.000000 0.500000
vt 0.600000 0.500000
vt 0.800000 1.000000
vt 0.400000 0.500000
vt 0.600000 1.000000
vt 0.391068 0.055836
vt 0.108932 0.055836
vt 0.021746 0.324164
vt 0.200000 0.500000
vt 0.400000 1.000000
vt 0.000000 0.500000
vt 0.200000 1.000000
vt 0.521746 0.324164
vt 0.608932 0.055836
vt 0.891068 0.055836
vt 0.478254 0.324164
vt 0.021746 0.324164
vt 0.000000 1.000000
vt 0.521746 0.324164
vt 0.750000 0.490000
vt 0.250000 0.490000
vt 0.478254 0.324164
vt 0.000000 1.000000
vt 0.978254 0.324164
vt 0.750000 0.490000
vt 0.625000 0.000000
vt 0.375000 0.250000
vt 0.375000 0.000000
vt 0.625000 0.250000
vt 0.375000 0.500000
vt 0.625000 0.500000
vt 0.375000 0.750000
vt 0.625000 0.750000
vt 0.375000 1.000000
vt 0.125000 0.500000
vt 0.125000 0.750000
vt 0.875000 0.500000
vt 0.625000 0.000000
vt 0.375000 0.250000
vt 0.375000 0.000000
vt 0.625000 0.500000
vt 0.375000 0.500000
vt 0.375000 0.750000
vt 0.625000 1.000000
vt 0.375000 1.000000
vt 0.125000 0.750000
vt 0.125000 0.500000
vt 0.875000 0.500000
vt 0.625000 0.750000
vt 0.625000 1.000000
vt 0.875000 0.750000
vt 0.625000 0.250000
vt 0.875000 0.750000
vt 0.400000 0.500000
vt 0.206558 0.525519
vt 0.206558 0.500000
vt 0.793442 1.000000
vt 0.800000 1.000000
vt 0.800000 1.000000
vt 0.793442 0.975000
vt 0.600000 0.525519
vt 0.793442 0.525519
vt 0.195688 0.975000
vt 0.009441 0.525519
vt 0.195688 0.525519
vt 0.800000 0.975000
vt 1.000000 1.000000
vt 1.000000 0.975000
vt 0.600000 0.975000
vt 0.200000 0.975000
vt 0.400000 1.000000
vt 0.400000 0.975000
vt 0.000000 0.975000
vt 0.200000 1.000000
vt 0.990559 1.000000
vt 0.804312 0.975000
vt 0.990559 0.975000
vt 0.600000 0.975000
vt 0.009441 0.500000
vt 0.195688 0.500000
vt 0.000000 1.000000
vt 0.195688 1.000000
vt 0.600000 1.000000
vt 0.400000 0.525519
vt 0.400000 0.525519
vt 0.400000 1.000000
vt 0.804312 1.000000
vt 0.200000 0.500000
vt 0.200000 0.500000
vt 0.206558 0.975000
vt 0.400000 0.975000
vt 0.600000 0.525519
vt 0.800000 0.525519
vt 0.800000 0.525519
vt 0.800000 0.975000
vt 0.600000 0.975000
vt 1.000000 0.525519
vt 1.000000 0.525519
vt 0.200000 0.525519
vt 0.000000 0.525519
vt 0.200000 0.525519
vt 0.804312 0.525519
vt 0.990559 0.525519
vt 0.600000 0.500000
vt 0.793442 0.500000
vt 0.600000 0.500000
vt 0.800000 0.500000
vt 0.009441 0.975000
vt 0.804312 0.500000
vt 0.990559 0.500000
vt 1.000000 0.500000
vt 0.400000 0.500000
vt 0.000000 0.500000
vt 0.400000 0.525519
vt 0.200000 0.975000
vt 0.400000 0.975000
vt 0.600000 0.525519
vt 1.000000 0.975000
vt 0.000000 0.975000
vt 0.797041 0.500000
vt 0.800000 0.500000
vt 0.804500 1.000000
vt 0.195500 0.500000
vt 0.202959 1.000000
vt 0.200000 1.000000
vt 0.206558 1.000000
vt 0.000000 0.500000
vt 0.000000 0.500000
vt -0.010480 1.000000
vt 0.009441 1.000000
vt 0.000000 1.000000
vt 0.000000 0.975000
vt 0.000000 0.525519
vt 0.600000 1.000000
vt 1.000000 1.000000
vt 0.000000 0.525519
vt 1.000000 0.500000
vt 0.000000 1.000000
vt 0.625000 0.000000
vt 0.375000 0.250000
vt 0.375000 0.000000
vt 0.625000 0.500000
vt 0.375000 0.500000
vt 0.375000 0.750000
vt 0.625000 0.750000
vt 0.375000 1.000000
vt 0.125000 0.750000
vt 0.125000 0.500000
vt 0.875000 0.500000
vt 0.625000 0.250000
vt 0.625000 1.000000
vt 0.875000 0.750000
vn -0.5878 0.0000 0.8090
vn -0.9511 0.0000 -0.3090
vn 0.0000 0.0000 -1.0000
vn 0.0000 1.0000 0.0000
vn 0.9511 0.0000 -0.3090
vn 0.5878 0.0000 0.8090
vn 0.0000 -1.0000 0.0000
vn -0.5878 0.0000 -0.8090
vn -0.9511 -0.0000 0.3090
vn 0.0000 -0.0000 1.0000
vn 0.9511 -0.0000 0.3090
vn 0.5878 0.0000 -0.8090
vn -0.6185 -0.7858 0.0000
vn -0.7858 0.6185 0.0000
vn 0.6185 0.7858 0.0000
vn 0.7858 -0.6185 -0.0000
vn -0.9985 0.0545 0.0000
vn 0.9985 0.0545 0.0000
vn -0.6455 0.7638 0.0000
vn -0.6890 -0.7247 0.0000
vn -0.9999 -0.0145 0.0000
vn 0.9999 -0.0145 0.0000
vn 0.6890 -0.7247 -0.0000
vn 0.6455 0.7638 0.0000
vn 0.6077 -0.7941 -0.0000
vn 0.9998 -0.0204 0.0000
vn -0.9998 -0.0204 -0.0000
vn -0.6077 -0.7941 -0.0000
vn 0.8952 0.4456 0.0000
vn -0.8952 0.4456 0.0000
usemtl Metal_MedicTent
s off
f 2/1/1 3/2/1 1/3/1
f 4/4/2 5/5/2 3/2/2
f 6/6/3 7/7/3 5/5/3
f 2/8/4 8/9/4 6/10/4
f 8/11/5 9/12/5 7/7/5
f 10/13/6 1/14/6 9/12/6
f 3/15/7 5/16/7 7/17/7
f 13/18/8 12/19/8 11/20/8
f 15/21/9 14/22/9 13/18/9
f 17/23/10 16/24/10 15/21/10
f 16/25/4 18/26/4 20/27/4
f 19/28/11 18/29/11 17/23/11
f 11/30/12 20/31/12 19/28/12
f 19/32/7 17/33/7 15/34/7
f 2/1/1 4/4/1 3/2/1
f 4/4/2 6/6/2 5/5/2
f 6/6/3 8/11/3 7/7/3
f 6/10/4 4/35/4 2/8/4
f 2/8/4 10/36/4 8/9/4
f 8/11/5 10/13/5 9/12/5
f 10/13/6 2/37/6 1/14/6
f 9/38/7 1/39/7 7/17/7
f 1/39/7 3/15/7 7/17/7
f 13/18/8 14/22/8 12/19/8
f 15/21/9 16/24/9 14/22/9
f 17/23/10 18/29/10 16/24/10
f 12/40/4 14/41/4 20/27/4
f 14/41/4 16/25/4 20/27/4
f 19/28/11 20/31/11 18/29/11
f 11/30/12 12/42/12 20/31/12
f 13/43/7 11/44/7 15/34/7
f 11/44/7 19/32/7 15/34/7
usemtl CrossRed_MedicTent
f 98/45/13 99/46/13 97/47/13
f 100/48/14 103/49/14 99/46/14
f 104/50/15 101/51/15 103/49/15
f 102/52/16 97/53/16 101/51/16
f 99/54/3 101/51/3 97/55/3
f 100/56/10 102/52/10 104/50/10
f 106/57/13 107/58/13 105/59/13
f 107/58/3 112/60/3 111/61/3
f 112/60/15 109/62/15 111/61/15
f 109/62/10 106/63/10 105/64/10
f 111/61/16 105/65/16 107/66/16
f 108/67/14 110/68/14 112/60/14
f 98/45/13 100/48/13 99/46/13
f 100/48/14 104/50/14 103/49/14
f 104/50/15 102/52/15 101/51/15
f 102/52/16 98/69/16 97/53/16
f 99/54/3 103/49/3 101/51/3
f 100/56/10 98/70/10 102/52/10
f 106/57/13 108/71/13 107/58/13
f 107/58/3 108/71/3 112/60/3
f 112/60/15 110/68/15 109/62/15
f 109/62/10 110/68/10 106/63/10
f 111/61/16 109/62/16 105/65/16
f 108/67/14 106/72/14 110/68/14
usemtl Green_MedicTent
f 23/73/17 77/74/17 65/75/17
f 62/76/10 64/77/10 28/78/10
f 71/79/18 42/80/18 76/81/18
f 73/82/19 88/83/19 78/84/19
f 38/85/20 26/86/20 37/87/20
f 39/88/21 28/78/21 38/85/21
f 41/89/22 32/90/22 40/91/22
f 37/92/23 34/93/23 41/89/23
f 82/94/24 72/95/24 85/96/24
f 62/76/18 35/97/18 71/79/18
f 78/84/19 79/98/19 66/99/19
f 26/100/10 68/101/10 34/93/10
f 22/102/7 39/88/7 35/97/7
f 23/73/7 46/103/7 43/104/7
f 24/105/10 32/90/10 34/93/10
f 26/86/10 28/78/10 63/106/10
f 65/75/3 67/107/3 33/108/3
f 24/105/17 74/109/17 36/110/17
f 36/110/7 32/90/7 24/105/7
f 45/111/10 55/112/10 44/113/10
f 39/88/3 54/114/3 53/115/3
f 44/113/10 49/116/10 48/117/10
f 47/118/10 49/119/10 58/120/10
f 43/104/17 74/109/17 77/74/17
f 85/96/24 75/121/24 87/122/24
f 76/81/18 21/123/18 60/124/18
f 21/123/3 29/125/3 27/126/3
f 68/101/19 86/127/19 73/82/19
f 87/122/24 59/128/24 80/129/24
f 25/130/20 44/113/20 48/117/20
f 29/125/21 44/113/21 27/126/21
f 31/131/22 47/118/22 46/103/22
f 25/132/23 47/118/23 33/108/23
f 42/80/7 29/125/7 21/123/7
f 57/133/7 36/110/7 43/104/7
f 49/119/25 51/134/25 58/120/25
f 58/120/26 52/135/26 57/133/26
f 56/136/27 54/114/27 55/112/27
f 55/112/28 50/137/28 49/116/28
f 38/85/3 50/137/3 54/114/3
f 41/89/3 50/138/3 37/92/3
f 46/103/10 58/120/10 57/133/10
f 40/91/3 51/134/3 41/89/3
f 35/97/4 56/136/4 53/115/4
f 59/128/3 60/139/3 61/140/3
f 62/76/10 63/141/10 64/77/10
f 65/75/3 66/142/3 67/107/3
f 68/101/10 69/143/10 70/144/10
f 60/124/29 75/121/29 76/81/29
f 66/99/30 77/74/30 78/84/30
f 71/79/29 63/106/29 62/76/29
f 68/101/30 74/109/30 69/145/30
f 76/81/29 72/95/29 71/79/29
f 78/84/30 74/109/30 73/82/30
f 25/130/3 59/128/3 27/126/3
f 79/98/3 80/146/3 81/147/3
f 82/148/10 83/149/10 84/150/10
f 83/149/4 85/151/4 86/127/4
f 86/127/4 87/152/4 88/83/4
f 88/83/4 80/146/4 79/98/4
f 25/132/3 33/108/3 66/99/3
f 23/73/17 43/104/17 77/74/17
f 30/153/10 22/102/10 28/78/10
f 22/102/10 62/76/10 28/78/10
f 71/79/18 35/97/18 42/80/18
f 73/82/19 86/127/19 88/83/19
f 38/85/20 28/78/20 26/86/20
f 39/88/21 30/153/21 28/78/21
f 41/89/22 34/93/22 32/90/22
f 37/92/23 26/100/23 34/93/23
f 82/94/24 63/106/24 72/95/24
f 62/76/18 22/102/18 35/97/18
f 78/84/19 88/83/19 79/98/19
f 26/100/10 84/150/10 83/149/10
f 83/149/10 68/101/10 26/100/10
f 68/101/10 70/144/10 34/93/10
f 22/102/7 30/153/7 39/88/7
f 23/73/7 31/131/7 46/103/7
f 34/93/10 70/144/10 69/145/10
f 69/145/10 24/105/10 34/93/10
f 28/78/10 64/77/10 63/106/10
f 63/106/10 82/94/10 26/86/10
f 82/94/10 84/154/10 26/86/10
f 31/131/3 23/73/3 33/108/3
f 23/73/3 65/75/3 33/108/3
f 24/105/17 69/145/17 74/109/17
f 36/110/7 40/91/7 32/90/7
f 45/111/10 56/136/10 55/112/10
f 39/88/3 38/85/3 54/114/3
f 44/113/10 55/112/10 49/116/10
f 47/118/10 48/155/10 49/119/10
f 43/104/17 36/110/17 74/109/17
f 85/96/24 72/95/24 75/121/24
f 76/81/18 42/80/18 21/123/18
f 27/126/3 61/140/3 60/124/3
f 60/124/3 21/123/3 27/126/3
f 68/101/19 83/149/19 86/127/19
f 87/122/24 75/121/24 59/128/24
f 25/130/20 27/126/20 44/113/20
f 29/125/21 45/111/21 44/113/21
f 31/131/22 33/108/22 47/118/22
f 25/132/23 48/155/23 47/118/23
f 42/80/7 45/111/7 29/125/7
f 57/133/7 52/135/7 36/110/7
f 49/119/25 50/138/25 51/134/25
f 58/120/26 51/134/26 52/135/26
f 56/136/27 53/115/27 54/114/27
f 55/112/28 54/114/28 50/137/28
f 38/85/3 37/87/3 50/137/3
f 41/89/3 51/134/3 50/138/3
f 46/103/10 47/118/10 58/120/10
f 40/91/3 52/135/3 51/134/3
f 35/97/4 42/80/4 56/136/4
f 60/124/29 59/128/29 75/121/29
f 66/99/30 65/75/30 77/74/30
f 71/79/29 72/95/29 63/106/29
f 68/101/30 73/82/30 74/109/30
f 76/81/29 75/121/29 72/95/29
f 78/84/30 77/74/30 74/109/30
f 25/130/3 81/156/3 80/129/3
f 80/129/3 59/128/3 25/130/3
f 59/128/3 61/140/3 27/126/3
f 83/149/4 82/157/4 85/151/4
f 86/127/4 85/151/4 87/152/4
f 88/83/4 87/152/4 80/146/4
f 33/108/3 67/107/3 66/99/3
f 66/99/3 79/98/3 25/132/3
f 79/98/3 81/147/3 25/132/3
usemtl CrossWhiteMedicTent
f 90/158/13 91/159/13 89/160/13
f 91/159/3 96/161/3 95/162/3
f 96/161/15 93/163/15 95/162/15
f 94/164/10 89/165/10 93/163/10
f 95/162/16 89/166/16 91/167/16
f 92/168/14 94/164/14 96/161/14
f 90/158/13 92/169/13 91/159/13
f 91/159/3 92/169/3 96/161/3
f 96/161/15 94/164/15 93/163/15
f 94/164/10 90/170/10 89/165/10
f 95/162/16 93/163/16 89/166/16
f 92/168/14 90/171/14 94/164/14
